<svg xmlns="http://www.w3.org/2000/svg" width="1200" height="630" viewBox="0 0 1200 630">
  <rect width="1200" height="630" fill="#0f2244"/>
  <rect x="0" y="0" width="6" height="630" fill="#D42B2B"/>
  <!-- Crosshair + Lock -->
  <g transform="translate(160,315)">
    <circle cx="0" cy="0" r="90" fill="none" stroke="#D42B2B" stroke-width="5"/>
    <line x1="-130" y1="0" x2="-96" y2="0" stroke="#D42B2B" stroke-width="5" stroke-linecap="round"/>
    <line x1="96" y1="0" x2="130" y2="0" stroke="#D42B2B" stroke-width="5" stroke-linecap="round"/>
    <line x1="0" y1="-130" x2="0" y2="-96" stroke="#D42B2B" stroke-width="5" stroke-linecap="round"/>
    <line x1="0" y1="96" x2="0" y2="130" stroke="#D42B2B" stroke-width="5" stroke-linecap="round"/>
    <path d="M-40,-55 C-40,-95 40,-95 40,-55 L40,-30 L-40,-30 Z" fill="none" stroke="white" stroke-width="7" stroke-linecap="round" stroke-linejoin="round"/>
    <rect x="-52" y="-30" width="104" height="75" rx="10" fill="white"/>
    <circle cx="0" cy="15" r="16" fill="#0f2244"/>
    <rect x="-8" y="25" width="16" height="20" rx="3" fill="#0f2244"/>
  </g>
  <!-- Text -->
  <text x="310" y="270" font-family="Arial Black,Arial,sans-serif" font-weight="900" font-size="72" fill="white" letter-spacing="3">PROFF</text>
  <line x1="310" y1="290" x2="890" y2="290" stroke="white" stroke-width="2" opacity="0.2"/>
  <text x="310" y="360" font-family="Arial Black,Arial,sans-serif" font-weight="900" font-size="56" fill="white" letter-spacing="6">LUKUABI</text>
  <text x="310" y="430" font-family="Arial,sans-serif" font-weight="400" font-size="28" fill="rgba(255,255,255,0.6)">Lukksepp Tallinnas ja Harjumaal</text>
  <text x="310" y="490" font-family="Arial,sans-serif" font-weight="700" font-size="26" fill="#D42B2B">+372 5681 7777</text>
  <text x="310" y="535" font-family="Arial,sans-serif" font-weight="400" font-size="22" fill="rgba(255,255,255,0.4)">lukuabi-24.ee</text>
</svg>
